<svg xmlns="http://www.w3.org/2000/svg" width="524.378" height="524.378" id="dior">
  <path fill="#fff" fill-rule="evenodd" d="M0 0h524.378v524.378H0Z"></path>
  <path fill-rule="evenodd" d="m28.377 166.487-9.636-.5-3.972-.794-.794-1.491c0-1.39.993-1.986 2.982-1.986h99.641q70.036 0 98.547 42.716 16.392 24.737 16.391 58.712a107.545 107.545 0 0 1-5.465 34.272 104.037 104.037 0 0 1-17.383 31 87.662 87.662 0 0 1-29.506 22.55c-12.22 5.563-25.928 8.444-41.326 8.444H10.792c-2.087 0-3.08-.7-3.08-1.885 0-1.292 1.491-1.986 4.271-1.986l24.34-1.488c3.776-.5 6.458-1.594 7.75-3.082l2.484-3.479c.9-2.38 1.393-5.955 1.491-10.825V179.104c0-6.159-3.477-9.935-10.232-11.426l-9.439-1.191Zm53.643 2.685-.7 3.975v174.939c0 1.986.4 3.373 1.192 3.874l3.975.6h13.115l30.4-1.094a104.651 104.651 0 0 0 20.564-3.975 55.89 55.89 0 0 0 15.1-8.341c3.975-3.278 8.047-7.949 12.519-13.91 7.449-9.734 12.813-22.152 16.091-37.351a147.1 147.1 0 0 0 2.982-28.807 103.454 103.454 0 0 0-3.675-26.326c-3.477-13.61-8.743-25.531-16.195-35.665-14.4-19.669-38.048-29.405-70.731-29.405h-20.17q-3.424-.306-4.467 1.485ZM251.1 357.923c-.2-1.194.794-1.689 2.982-1.689l6.953-.2c3.776-.5 6.061-1.785 6.953-3.773l1.292-7.152v-57.724a5.529 5.529 0 0 0-2.285-4.867l-5.166-.5-6.952 1.891-3.776-.2q-.747-1.787 4.47-3.278a91.923 91.923 0 0 0 21.657-8.444 66.866 66.866 0 0 1 7.649-3.876l2.982-.3c.993.2 1.493 2.184 1.493 5.759v72.717c0 3.474.792 5.96 2.285 7.449 1.785 1.79 5.96 2.682 12.416 2.682 2.285 0 3.474.5 3.678 1.589 0 .9-.7 1.194-1.891 1.194h-52.953c-1.192.008-1.787-.492-1.787-1.284Zm234.446-71.531a39.356 39.356 0 0 0-9.935 18.178v42.224c0 3.773 1.292 6.456 3.975 8.145l6.064 1.088 6.355.7c1.493.2 2.089.5 2.089 1.292l-.3.7-1.689.5h-53.146c-1.589 0-2.481-.5-2.481-1.292l1.488-1.194 8.942-.7c3.474-.6 5.664-1.785 6.855-3.575l1.493-4.47v-59.6l-1-4.372-1.684-.993a4.51 4.51 0 0 0-2.486-.993 11.657 11.657 0 0 0-5.163.993l-5.063 1.393-2.886-.7c-.5-.7-.3-1.192.4-1.488l4.271-1.79c9.734-2.881 17.582-5.86 23.05-8.937l6.752-3.678 2.982.2 1.192 2.486v21.853c7.454-12.119 13.412-19.568 17.487-22.054a30.074 30.074 0 0 1 6.657-3.177l3.474-.3c2.184-.2 4.671.5 7.449 2.285a11.219 11.219 0 0 1 5.96 9.633 9.919 9.919 0 0 1-2.982 8.246c-1.986 1.689-3.975 2.19-5.759 1.689a6.58 6.58 0 0 1-3.874-1.986l-2.783-3.474c-2.184-3.183-4.271-4.176-6.752-3.278-2.892.786-5.868 2.976-8.95 6.45Zm-207.623-81.659a12.353 12.353 0 0 0-9.138 3.776 11.442 11.442 0 0 0-3.779 9.339 10.9 10.9 0 0 0 3.779 8.942 12.965 12.965 0 0 0 22.049-8.942 12.908 12.908 0 0 0-3.874-9.339 12.457 12.457 0 0 0-9.037-3.776Zm52.654 79.274a45.624 45.624 0 0 1 13.412-11.918 44.016 44.016 0 0 1 14.505-5.468l18.379-1.088a50.3 50.3 0 0 1 18.379 4.07c13.412 5.96 21.853 16.891 25.031 32.784 3.278 16.094.5 29.707-8.246 40.733-7.449 9.337-17.286 15.3-29.7 17.879-13.012 2.881-25.131 1.986-36.062-2.481-14.209-5.765-22.846-17.188-25.632-33.877-2.484-15.792.794-29.206 9.935-40.632Zm58.212-4.467q-9.088-10.128-22.949-8.942c-8.937.9-15.792 5.86-20.264 15.3-4.07 8.545-5.563 18.98-4.07 31.3 1.088 12.22 4.967 21.954 11.222 29.405 6.657 7.848 14.209 11.127 22.65 9.638a26.868 26.868 0 0 0 19.573-14.4c4.17-8.145 5.658-18.676 4.665-32.087-1.189-13.412-4.663-23.349-10.827-30.2Zm-138.382 4.372v.993l-2.187-1.393v.5l.2.9h-.3v-1.891h.1l1.986 1.494v-1.494h.4l-.2.9Z"></path>
  <path fill-rule="evenodd" d="M254.079 283.215h-1.191v.7h.993v.1h-.993v.7h1.192v.2h-1.489v-1.893h1.488Zm5.465-.2h.1l-.993 1.891h-.3l-.794-1.494-.9 1.494h-.1a12.19 12.19 0 0 1-.993-1.891h.5l.6 1.494.9-1.494h.3l.7 1.494.794-1.494Zm2.78.993.2.9h-.5v-.7l-.993-1.2h.5l.794.993.794-.993h.4Zm2.783-.593a1.9 1.9 0 0 1 1.192-.4 2.456 2.456 0 0 1 1.194.4.864.864 0 0 1 .3.6l-.3.7a2.308 2.308 0 0 1-1.194.2c-.5 0-.993 0-1.192-.2l-.5-.7a.638.638 0 0 1 .501-.601Zm1.989 0-.8-.2-.792.2a.576.576 0 0 0 0 1.1l.792.4a1.051 1.051 0 0 0 .8-.4.665.665 0 0 0 .4-.5.675.675 0 0 0-.4-.601Zm2.979-.2-.1.7h.3c.5 0 .8-.2.8-.4 0-.1-.1-.3-.6-.3h-.392Zm.5-.2c.5 0 .892.2.892.5l-.394.4-.5.1 1.194.9h-.5l-1.192-.9h-.1l.1.9h-.5v-1.891h1Zm4.967 0-1.289.9 1.289 1h-.501l-1.1-.9v-.1l-.2.1.2.9h-.5v-1.893h.5l-.2.9h.2l1.292-.9Z"></path>
</svg>
